<svg width="900" height="340" viewBox="0 0 900 340" xmlns="http://www.w3.org/2000/svg">
  <defs>
    <linearGradient id="bg2" x1="0%" y1="0%" x2="100%" y2="100%">
      <stop offset="0%" style="stop-color:#0D1117"/>
      <stop offset="100%" style="stop-color:#0f0520"/>
    </linearGradient>
    <filter id="glow2">
      <feGaussianBlur stdDeviation="3" result="blur"/>
      <feMerge><feMergeNode in="blur"/><feMergeNode in="SourceGraphic"/></feMerge>
    </filter>
    <filter id="glowSoft2">
      <feGaussianBlur stdDeviation="1.5" result="blur"/>
      <feMerge><feMergeNode in="blur"/><feMergeNode in="SourceGraphic"/></feMerge>
    </filter>
  </defs>

  <rect width="900" height="340" fill="url(#bg2)" rx="6"/>

  <!-- Grid -->
  <g opacity="0.04" stroke="#BF00FF" stroke-width="0.5">
    <line x1="0" y1="42.5" x2="900" y2="42.5"/><line x1="0" y1="85" x2="900" y2="85"/>
    <line x1="0" y1="127.5" x2="900" y2="127.5"/><line x1="0" y1="170" x2="900" y2="170"/>
    <line x1="0" y1="212.5" x2="900" y2="212.5"/><line x1="0" y1="255" x2="900" y2="255"/>
    <line x1="0" y1="297.5" x2="900" y2="297.5"/>
    <line x1="225" y1="0" x2="225" y2="340"/><line x1="450" y1="0" x2="450" y2="340"/>
    <line x1="675" y1="0" x2="675" y2="340"/>
  </g>

  <!-- Border -->
  <rect x="1" y="1" width="898" height="338" rx="5" fill="none" stroke="#8A2BE2" stroke-width="1.5" filter="url(#glow2)"/>
  <rect x="1" y="1" width="898" height="338" rx="5" fill="none" stroke="#8A2BE2" stroke-width="1">
    <animate attributeName="opacity" values="0.5;1;0.5" dur="3s" repeatCount="indefinite"/>
  </rect>

  <!-- Corner accents -->
  <g filter="url(#glow2)">
    <polyline points="8,28 8,8 28,8" fill="none" stroke="#00FFFF" stroke-width="1.5"/>
    <polyline points="872,8 892,8 892,28" fill="none" stroke="#00FFFF" stroke-width="1.5"/>
    <polyline points="8,312 8,332 28,332" fill="none" stroke="#00FFFF" stroke-width="1.5"/>
    <polyline points="872,332 892,332 892,312" fill="none" stroke="#00FFFF" stroke-width="1.5"/>
  </g>

  <!-- Header -->
  <rect x="0" y="0" width="900" height="32" rx="5" fill="#0f0520"/>
  <rect x="0" y="26" width="900" height="6" fill="#0f0520"/>
  <text x="450" y="20" font-family="'Courier New', monospace" font-size="11" fill="#00FFFF" text-anchor="middle" filter="url(#glowSoft2)">▸ FEATURED.PROJECTS</text>
  <line x1="16" y1="32" x2="884" y2="32" stroke="#8A2BE2" stroke-width="0.8" opacity="0.5"/>

  <!-- ── CARD 1 (top-left) ── -->
  <rect x="16" y="44" width="420" height="130" rx="4" fill="#07000f" stroke="#8A2BE2" stroke-width="1" opacity="0.9"/>
  <rect x="16" y="44" width="420" height="22" rx="4" fill="#1a0535"/>
  <rect x="16" y="56" width="420" height="10" fill="#1a0535"/>
  <text x="30" y="60" font-family="'Courier New', monospace" font-size="9" fill="#00FFFF">◈ PROJECT_01</text>
  <!-- Dot indicator -->
  <circle cx="408" cy="55" r="4" fill="#28C840"><animate attributeName="opacity" values="1;0.3;1" dur="2s" repeatCount="indefinite"/></circle>
  <line x1="16" y1="66" x2="436" y2="66" stroke="#8A2BE2" stroke-width="0.5" opacity="0.4"/>
  <text x="30" y="84" font-family="'Courier New', monospace" font-size="10" fill="#FFFFFF" font-weight="bold">FizzDo</text>
  <text x="30" y="100" font-family="'Courier New', monospace" font-size="9" fill="#888899">Productivity app with tasks, habits, routines,</text>
  <text x="30" y="113" font-family="'Courier New', monospace" font-size="9" fill="#888899">notes, mood tracking and Pomodoro.</text>
  <!-- Tags -->
  <rect x="30" y="120" width="76" height="14" rx="7" fill="#1a0535" stroke="#8A2BE2" stroke-width="0.8"/>
  <text x="68" y="130.5" font-family="'Courier New', monospace" font-size="8" fill="#BF00FF" text-anchor="middle">React Native</text>
  <rect x="112" y="120" width="52" height="14" rx="7" fill="#1a0535" stroke="#8A2BE2" stroke-width="0.8"/>
  <text x="138" y="130.5" font-family="'Courier New', monospace" font-size="8" fill="#BF00FF" text-anchor="middle">Express</text>
  <rect x="170" y="120" width="60" height="14" rx="7" fill="#1a0535" stroke="#8A2BE2" stroke-width="0.8"/>
  <text x="200" y="130.5" font-family="'Courier New', monospace" font-size="8" fill="#BF00FF" text-anchor="middle">MongoDB</text>
  <!-- Links -->
  <text x="300" y="131" font-family="'Courier New', monospace" font-size="9" fill="#8A2BE2">[ REPO ]</text>

  <!-- ── CARD 2 (top-right) ── -->
  <rect x="464" y="44" width="420" height="130" rx="4" fill="#07000f" stroke="#8A2BE2" stroke-width="1" opacity="0.9"/>
  <rect x="464" y="44" width="420" height="22" rx="4" fill="#1a0535"/>
  <rect x="464" y="56" width="420" height="10" fill="#1a0535"/>
  <text x="478" y="60" font-family="'Courier New', monospace" font-size="9" fill="#00FFFF">◈ PROJECT_02</text>
  <circle cx="856" cy="55" r="4" fill="#28C840"><animate attributeName="opacity" values="1;0.3;1" dur="2.3s" repeatCount="indefinite"/></circle>
  <line x1="464" y1="66" x2="884" y2="66" stroke="#8A2BE2" stroke-width="0.5" opacity="0.4"/>
  <text x="478" y="84" font-family="'Courier New', monospace" font-size="10" fill="#FFFFFF" font-weight="bold">BiB Ecommerce</text>
  <text x="478" y="100" font-family="'Courier New', monospace" font-size="9" fill="#888899">Full-stack ecommerce with authentication,</text>
  <text x="478" y="113" font-family="'Courier New', monospace" font-size="9" fill="#888899">shopping cart, payments and admin dashboard.</text>
  <rect x="478" y="120" width="42" height="14" rx="7" fill="#1a0535" stroke="#8A2BE2" stroke-width="0.8"/>
  <text x="499" y="130.5" font-family="'Courier New', monospace" font-size="8" fill="#BF00FF" text-anchor="middle">React</text>
  <rect x="526" y="120" width="52" height="14" rx="7" fill="#1a0535" stroke="#8A2BE2" stroke-width="0.8"/>
  <text x="552" y="130.5" font-family="'Courier New', monospace" font-size="8" fill="#BF00FF" text-anchor="middle">Node.js</text>
  <rect x="584" y="120" width="60" height="14" rx="7" fill="#1a0535" stroke="#8A2BE2" stroke-width="0.8"/>
  <text x="614" y="130.5" font-family="'Courier New', monospace" font-size="8" fill="#BF00FF" text-anchor="middle">MongoDB</text>
  <text x="748" y="131" font-family="'Courier New', monospace" font-size="9" fill="#8A2BE2">[ REPO ]</text>

  <!-- ── CARD 3 (bottom-left) ── -->
  <rect x="16" y="194" width="420" height="130" rx="4" fill="#07000f" stroke="#8A2BE2" stroke-width="1" opacity="0.9"/>
  <rect x="16" y="194" width="420" height="22" rx="4" fill="#1a0535"/>
  <rect x="16" y="206" width="420" height="10" fill="#1a0535"/>
  <text x="30" y="210" font-family="'Courier New', monospace" font-size="9" fill="#00FFFF">◈ PROJECT_03</text>
  <circle cx="408" cy="205" r="4" fill="#28C840"><animate attributeName="opacity" values="1;0.3;1" dur="1.8s" repeatCount="indefinite"/></circle>
  <line x1="16" y1="216" x2="436" y2="216" stroke="#8A2BE2" stroke-width="0.5" opacity="0.4"/>
  <text x="30" y="234" font-family="'Courier New', monospace" font-size="10" fill="#FFFFFF" font-weight="bold">Stokes Manager</text>
  <text x="30" y="250" font-family="'Courier New', monospace" font-size="9" fill="#888899">Inventory system with stock control, sales</text>
  <text x="30" y="263" font-family="'Courier New', monospace" font-size="9" fill="#888899">tracking and business analytics.</text>
  <rect x="30" y="270" width="42" height="14" rx="7" fill="#1a0535" stroke="#8A2BE2" stroke-width="0.8"/>
  <text x="51" y="280.5" font-family="'Courier New', monospace" font-size="8" fill="#BF00FF" text-anchor="middle">React</text>
  <rect x="78" y="270" width="52" height="14" rx="7" fill="#1a0535" stroke="#8A2BE2" stroke-width="0.8"/>
  <text x="104" y="280.5" font-family="'Courier New', monospace" font-size="8" fill="#BF00FF" text-anchor="middle">Express</text>
  <rect x="136" y="270" width="60" height="14" rx="7" fill="#1a0535" stroke="#8A2BE2" stroke-width="0.8"/>
  <text x="166" y="280.5" font-family="'Courier New', monospace" font-size="8" fill="#BF00FF" text-anchor="middle">MongoDB</text>
  <text x="300" y="281" font-family="'Courier New', monospace" font-size="9" fill="#8A2BE2">[ REPO ]</text>

  <!-- ── CARD 4 (bottom-right) ── -->
  <rect x="464" y="194" width="420" height="130" rx="4" fill="#07000f" stroke="#8A2BE2" stroke-width="1" opacity="0.9"/>
  <rect x="464" y="194" width="420" height="22" rx="4" fill="#1a0535"/>
  <rect x="464" y="206" width="420" height="10" fill="#1a0535"/>
  <text x="478" y="210" font-family="'Courier New', monospace" font-size="9" fill="#00FFFF">◈ PROJECT_04</text>
  <circle cx="856" cy="205" r="4" fill="#28C840"><animate attributeName="opacity" values="1;0.3;1" dur="2.6s" repeatCount="indefinite"/></circle>
  <line x1="464" y1="216" x2="884" y2="216" stroke="#8A2BE2" stroke-width="0.5" opacity="0.4"/>
  <text x="478" y="234" font-family="'Courier New', monospace" font-size="10" fill="#FFFFFF" font-weight="bold"> Backend REST API</text>
  <text x="478" y="250" font-family="'Courier New', monospace" font-size="9" fill="#888899">RESTful API with product CRUD, authentication</text>
  <text x="478" y="263" font-family="'Courier New', monospace" font-size="9" fill="#888899">and Firebase integration.</text>
  <rect x="478" y="270" width="48" height="14" rx="7" fill="#1a0535" stroke="#8A2BE2" stroke-width="0.8"/>
  <text x="502" y="280.5" font-family="'Courier New', monospace" font-size="8" fill="#BF00FF" text-anchor="middle">Node.js</text>
  <rect x="532" y="270" width="56" height="14" rx="7" fill="#1a0535" stroke="#8A2BE2" stroke-width="0.8"/>
  <text x="560" y="280.5" font-family="'Courier New', monospace" font-size="8" fill="#BF00FF" text-anchor="middle">Firebase</text>
  <rect x="594" y="270" width="40" height="14" rx="7" fill="#1a0535" stroke="#8A2BE2" stroke-width="0.8"/>
  <text x="614" y="280.5" font-family="'Courier New', monospace" font-size="8" fill="#BF00FF" text-anchor="middle">JavaScript</text>
  <text x="748" y="281" font-family="'Courier New', monospace" font-size="9" fill="#8A2BE2">[ REPO ]</text>
  <!-- Pulsing border accent -->
  <rect x="1" y="1" width="898" height="338" rx="5" fill="none" stroke="#FF00FF" stroke-width="0.5"><animate attributeName="opacity" values="0;0.3;0" dur="4s" repeatCount="indefinite"/></rect>
</svg>